<?xml version="1.0" standalone="no"?>
<!DOCTYPE svg PUBLIC "-//W3C//DTD SVG 20010904//EN"
 "http://www.w3.org/TR/2001/REC-SVG-20010904/DTD/svg10.dtd">
<svg version="1.0" xmlns="http://www.w3.org/2000/svg"
 width="477.000000pt" height="396.000000pt" viewBox="0 0 477.000000 396.000000"
 preserveAspectRatio="xMidYMid meet">

<g transform="translate(0.000000,396.000000) scale(0.100000,-0.100000)"
fill="#000000" stroke="none">
<path d="M1261 3645 c-161 -35 -306 -106 -433 -212 -368 -306 -452 -785 -224
-1268 134 -284 359 -579 701 -920 226 -226 533 -489 792 -680 l123 -90 0 -87
0 -88 110 0 110 0 0 665 0 665 23 5 c12 2 184 6 382 8 318 3 374 6 479 26 270
50 466 148 620 311 129 138 198 306 215 523 21 268 -27 485 -145 653 -158 225
-425 342 -859 374 -85 6 -319 10 -540 8 l-390 -3 -3 -115 -2 -115 -88 85
c-129 126 -268 202 -454 249 -98 25 -314 28 -417 6z m404 -145 c204 -52 382
-181 503 -363 l52 -79 0 -1204 c0 -662 -2 -1204 -4 -1204 -7 0 -281 214 -381
298 -539 453 -937 913 -1109 1285 -82 177 -111 293 -111 452 0 240 86 438 262
606 127 121 299 206 468 233 62 9 242 -4 320 -24z m1668 -199 c269 -59 422
-162 513 -346 54 -110 74 -209 74 -365 -1 -367 -155 -591 -475 -689 -162 -50
-279 -63 -638 -68 -260 -4 -340 -3 -352 7 -13 11 -15 105 -15 735 0 398 3 731
7 740 6 16 36 17 397 12 350 -4 401 -7 489 -26z"/>
</g>
</svg>
