<?xml version="1.0" standalone="no"?>
<!DOCTYPE svg PUBLIC "-//W3C//DTD SVG 20010904//EN"
 "http://www.w3.org/TR/2001/REC-SVG-20010904/DTD/svg10.dtd">
<svg version="1.0" xmlns="http://www.w3.org/2000/svg"
 width="514.000000pt" height="450.000000pt" viewBox="0 0 514.000000 450.000000"
 preserveAspectRatio="xMidYMid meet">

<g transform="translate(0.000000,450.000000) scale(0.100000,-0.100000)"
fill="#000000" stroke="none">
<path d="M1118 4215 c-582 -99 -1007 -543 -1070 -1117 -20 -184 16 -415 97
-620 161 -406 499 -865 970 -1312 404 -384 796 -704 1234 -1008 l84 -58 696 0
c712 0 792 4 981 41 483 97 797 366 899 770 35 137 47 301 33 444 -15 146 -38
233 -91 340 -129 258 -353 394 -798 481 -40 8 -25 21 40 33 89 18 224 64 309
107 185 93 330 253 396 439 32 90 43 157 49 291 9 181 -26 345 -103 494 -126
245 -356 398 -714 474 -223 48 -230 48 -982 53 l-718 4 0 -237 0 -237 -38 59
c-195 299 -536 511 -907 564 -94 13 -272 11 -367 -5z m433 -185 c298 -63 567
-258 721 -521 26 -45 72 -144 102 -220 l56 -139 -2 -1416 -3 -1415 -195 142
c-690 502 -1277 1063 -1626 1554 -244 344 -384 697 -384 969 0 144 44 334 107
461 108 216 319 419 533 512 225 97 460 122 691 73z m2144 -210 c657 -43 954
-275 955 -746 0 -133 -11 -211 -41 -294 -61 -165 -154 -271 -302 -344 -231
-115 -406 -136 -1144 -136 l-453 0 0 765 0 765 418 0 c229 0 484 -5 567 -10z
m75 -1770 c243 -17 418 -58 576 -135 90 -44 124 -68 185 -127 140 -136 200
-273 215 -488 13 -179 -21 -360 -93 -505 -92 -183 -243 -305 -468 -378 -197
-64 -357 -76 -987 -77 l-488 0 0 860 0 860 458 0 c251 0 522 -5 602 -10z"/>
</g>
</svg>
